<svg width="200" height="41" viewBox="0 0 200 41" fill="none" xmlns="http://www.w3.org/2000/svg">
<path d="M79.87 12.69H86.71V14.73H79.87V12.69ZM85.3 5.25H87.79V25.11H85.3V5.25ZM70.48 29.7H88.54V31.74H70.48V29.7ZM70.48 23.37H72.97V30.75H70.48V23.37ZM72.4 8.61H74.44V10.8C74.44 15.72 71.38 19.98 66.85 21.66L65.56 19.68C69.61 18.24 72.4 14.64 72.4 10.8V8.61ZM72.88 8.61H74.89V10.77C74.89 14.28 77.53 17.7 81.46 19.08L80.2 21.03C75.79 19.44 72.88 15.36 72.88 10.77V8.61ZM66.34 7.44H80.83V9.45H66.34V7.44ZM104.138 15.93H109.268V17.97H104.138V15.93ZM98.6177 12.15H100.538V13.56C100.538 18.96 98.2877 24.42 94.3277 26.79L92.8577 24.9C96.5177 22.77 98.6177 18 98.6177 13.56V12.15ZM99.0677 12.15H100.988V13.56C100.988 17.88 103.148 22.35 106.808 24.33L105.398 26.19C101.408 23.97 99.0677 18.84 99.0677 13.56V12.15ZM93.6077 10.2H105.998V12.27H93.6077V10.2ZM98.6177 6.18H101.018V11.79H98.6177V6.18ZM113.708 5.22H116.108V32.34H113.708V5.22ZM108.278 5.85H110.618V30.96H108.278V5.85ZM139.117 5.91H141.247V7.23C141.247 12.15 136.057 15.78 130.567 16.74L129.577 14.76C134.377 14.04 139.117 10.86 139.117 7.23V5.91ZM139.507 5.91H141.637V7.23C141.637 10.77 146.437 14.01 151.147 14.73L150.217 16.68C144.727 15.75 139.507 12.03 139.507 7.23V5.91ZM128.107 19.02H152.677V21.06H128.107V19.02ZM139.327 20.28H141.817V26.52H139.327V20.28ZM131.227 29.7H149.947V31.74H131.227V29.7ZM131.227 23.91H133.687V30.36H131.227V23.91ZM164.584 6.48C168.634 6.48 171.514 8.73 171.514 12.06C171.514 15.36 168.634 17.67 164.584 17.67C160.564 17.67 157.684 15.36 157.684 12.06C157.684 8.73 160.564 6.48 164.584 6.48ZM164.584 8.55C161.944 8.55 160.054 9.99 160.054 12.06C160.054 14.16 161.944 15.57 164.584 15.57C167.224 15.57 169.114 14.16 169.114 12.06C169.114 9.99 167.224 8.55 164.584 8.55ZM163.474 20.67H165.964V31.5H163.474V20.67ZM175.474 5.22H177.934V32.37H175.474V5.22ZM156.004 22.02L155.674 19.92C160.714 19.92 167.584 19.86 173.554 18.96L173.734 20.82C167.614 21.93 160.954 22.02 156.004 22.02Z" fill="#000080"/>
<path d="M12.2192 10.4326L4.78516 32H0.290527L9.65576 7.11719H12.5269L12.2192 10.4326ZM18.4399 32L10.9888 10.4326L10.6641 7.11719H13.5522L22.9517 32H18.4399ZM18.0811 22.7715V26.1724H4.5459V22.7715H18.0811ZM29.7363 5.75V32H25.6006V5.75H29.7363ZM38.6572 5.75V32H34.5215V5.75H38.6572Z" fill="#000080"/>
</svg>
