<svg width="164" height="46" viewBox="0 0 164 46" fill="none" xmlns="http://www.w3.org/2000/svg">
<path d="M89.21 8.25H91.73V28.11H89.21V8.25ZM74.3 32.7H92.54V34.74H74.3V32.7ZM74.3 26.28H76.76V33.66H74.3V26.28ZM76.55 9.72H78.62V12.48C78.62 17.76 75.62 22.38 71.06 24.24L69.77 22.23C73.85 20.64 76.55 16.68 76.55 12.48V9.72ZM77 9.72H79.04V12.48C79.04 16.56 81.77 20.25 85.82 21.72L84.5 23.73C80 21.99 77 17.64 77 12.48V9.72ZM100.188 9.96H117.138V12H100.188V9.96ZM97.0977 21.78H121.608V23.82H97.0977V21.78ZM103.398 23.04H105.888V35.34H103.398V23.04ZM115.788 9.96H118.248V11.97C118.248 14.52 118.248 17.79 117.318 22.44L114.858 22.2C115.788 17.7 115.788 14.46 115.788 11.97V9.96ZM112.668 23.04H115.158V35.34H112.668V23.04ZM132.137 21.12H156.617V23.13H132.137V21.12ZM134.777 26.22H153.497V35.34H151.007V28.23H134.777V26.22ZM135.047 9.66H152.507V11.7H135.047V9.66ZM142.187 15.6H144.647V21.66H142.187V15.6ZM151.067 9.66H153.527V11.73C153.527 13.8 153.527 16.14 152.837 19.2L150.377 18.96C151.067 15.93 151.067 13.74 151.067 11.73V9.66Z" fill="#000080"/>
<path d="M15.0672 24.2141L9.2453 30.1706L11.0551 31.9048L17.2259 25.582C17.4549 25.3451 17.5748 25.0435 17.5748 24.7203V14.0891H15.0563V24.2141H15.0672Z" fill="url(#paint0_linear_206_327)"/>
<path d="M33.7541 8.36967H21.5978C20.3331 8.36967 19.3519 9.47911 19.3519 10.8901V11.4287H21.3253V22.0599H23.8655V20.7889L27.6923 16.9436C29.2841 19.2163 30.1563 21.9522 30.1563 24.7097C30.1563 32.2388 23.9637 38.3568 16.3428 38.3568C8.72199 38.3568 2.52938 32.2388 2.52938 24.7097C2.52938 17.1806 8.72199 11.0625 16.3428 11.0625C17.7601 11.0625 18.9049 9.92073 18.9049 8.53124C18.9049 7.14175 17.7492 6 16.3428 6H15.7977V8.57433H16.3428C7.32647 8.57433 0 15.8126 0 24.7097C0 33.6067 7.32647 40.845 16.3319 40.845C25.3374 40.845 32.6638 33.6067 32.6638 24.7097C32.6638 21.2736 31.53 17.8915 29.4803 15.134L33.4815 11.1056V11.4179H36V10.8794C36 9.46834 35.0079 8.3589 33.7541 8.3589V8.36967ZM30.1999 10.8578L23.8546 17.2344V10.8578H30.1999Z" fill="url(#paint1_linear_206_327)"/>
<path d="M33.7541 8.36967H21.5978C20.3331 8.36967 19.3519 9.47911 19.3519 10.8901V11.4287H21.3253V22.0599H23.8655V20.7889L27.6923 16.9436C29.2841 19.2163 30.1563 21.9522 30.1563 24.7097C30.1563 32.2388 23.9637 38.3568 16.3428 38.3568C8.72199 38.3568 2.52938 32.2388 2.52938 24.7097C2.52938 17.1806 8.72199 11.0625 16.3428 11.0625C17.7601 11.0625 18.9049 9.92073 18.9049 8.53124C18.9049 7.14175 17.7492 6 16.3428 6H15.7977V8.57433H16.3428C7.32647 8.57433 0 15.8126 0 24.7097C0 33.6067 7.32647 40.845 16.3319 40.845C25.3374 40.845 32.6638 33.6067 32.6638 24.7097C32.6638 21.2736 31.53 17.8915 29.4803 15.134L33.4815 11.1056V11.4179H36V10.8794C36 9.46834 35.0079 8.3589 33.7541 8.3589V8.36967ZM30.1999 10.8578L23.8546 17.2344V10.8578H30.1999Z" fill="url(#paint2_linear_206_327)"/>
<defs>
<linearGradient id="paint0_linear_206_327" x1="14.1296" y1="28.7272" x2="9.4248" y2="-16.4916" gradientUnits="userSpaceOnUse">
<stop offset="0.03" stop-color="#000080"/>
<stop offset="0.04" stop-color="#13068E"/>
<stop offset="0.07" stop-color="#3310A4"/>
<stop offset="0.09" stop-color="#4E18B7"/>
<stop offset="0.12" stop-color="#641FC7"/>
<stop offset="0.15" stop-color="#7524D3"/>
<stop offset="0.19" stop-color="#8128DB"/>
<stop offset="0.24" stop-color="#882AE0"/>
<stop offset="0.4" stop-color="#8A2BE2"/>
</linearGradient>
<linearGradient id="paint1_linear_206_327" x1="0" y1="23.4279" x2="36" y2="23.4279" gradientUnits="userSpaceOnUse">
<stop offset="0.06" stop-color="#000080"/>
<stop offset="0.21" stop-color="#1A0892"/>
<stop offset="0.58" stop-color="#561ABD"/>
<stop offset="0.86" stop-color="#7B26D7"/>
<stop offset="1" stop-color="#8A2BE2"/>
</linearGradient>
<linearGradient id="paint2_linear_206_327" x1="0" y1="23.4279" x2="36" y2="23.4279" gradientUnits="userSpaceOnUse">
<stop offset="0.06" stop-color="#000080"/>
<stop offset="0.21" stop-color="#1A0892"/>
<stop offset="0.58" stop-color="#561ABD"/>
<stop offset="0.86" stop-color="#7B26D7"/>
<stop offset="1" stop-color="#8A2BE2"/>
</linearGradient>
</defs>
</svg>
