<svg width="208" height="50" viewBox="0 0 208 50" fill="none" xmlns="http://www.w3.org/2000/svg">
<path d="M83.1 13.75H85.5C85.5 20.14 82.23 24.88 74.97 27.61L73.83 25.81C80.28 23.47 83.1 19.54 83.1 14.56V13.75ZM74.97 13.75H83.94V15.76H74.97V13.75ZM82.83 18.49V20.2L74.1 21.1L73.71 19.09L82.83 18.49ZM93.96 12.22H96.33V26.47H93.96V12.22ZM89.64 18.46H94.77V20.5H89.64V18.46ZM88.05 12.73H90.39V26.26H88.05V12.73ZM78.45 27.73H96.33V34.09H80.97V38.14H78.51V32.26H93.93V29.68H78.45V27.73ZM78.51 37.03H97.38V38.98H78.51V37.03ZM120.808 12.25H123.298V32.23H120.808V12.25ZM105.628 36.7H124.048V38.74H105.628V36.7ZM105.628 30.64H108.118V37.72H105.628V30.64ZM102.478 26.32H104.668C109.798 26.32 113.368 26.14 117.568 25.42L117.838 27.46C113.518 28.21 109.918 28.36 104.668 28.36H102.478V26.32ZM102.418 14.14H114.718V22H104.908V26.95H102.478V20.08H112.288V16.18H102.418V14.14ZM130.045 30.58H132.115C137.155 30.58 140.395 30.46 144.175 29.74L144.445 31.78C140.545 32.5 137.275 32.68 132.115 32.68H130.045V30.58ZM130.045 14.8H142.375V16.84H132.505V31.36H130.045V14.8ZM148.555 12.22H151.045V39.4H148.555V12.22ZM140.785 22.03H149.575V24.1H140.785V22.03Z" fill="#000080"/>
<path d="M6.4215 3.85211H10.8443V9.55895C12.8988 14.6951 18.1205 11.8417 18.1205 9.55895V3.85211H29.8195V9.55895C31.5316 14.6951 37.0958 12.127 37.0958 9.55895V3.85211H41.5186C45.8558 3.85211 46.845 7.8469 46.7974 9.8443V17.5485H1.14268V9.8443C1.02854 5.05055 4.61434 3.85211 6.4215 3.85211Z" fill="#000080" stroke="#000080"/>
<circle cx="14.411" cy="2.28274" r="2.28274" fill="#000080"/>
<circle cx="14.4112" cy="8.84563" r="2.28274" fill="#000080"/>
<rect x="12.1284" y="2.28275" width="4.56547" height="6.84821" fill="#000080"/>
<circle cx="33.2437" cy="2.28274" r="2.28274" fill="#000080"/>
<circle cx="33.2437" cy="8.84563" r="2.28274" fill="#000080"/>
<rect x="30.9609" y="2.28275" width="4.56547" height="6.84821" fill="#000080"/>
<path d="M1 44.0112V17.617H3.14007L3.28274 44.0112C3.39687 45.7232 5.23257 46.4366 6.13616 46.5793L41.9466 46.4366C44.0011 46.3224 44.5147 44.677 44.5147 43.8685V17.617H46.7974V43.8685C46.7974 47.2926 43.5635 48.6242 41.9466 48.862L4.99479 48.5767C1.79896 47.5494 1 45.105 1 44.0112Z" fill="#000080"/>
<path d="M46.7974 43.8685C46.7974 47.2926 43.5635 48.6242 41.9466 48.862L4.99479 48.5767C1.79896 47.5494 1 45.105 1 44.0112V17.617H3.14007L3.28274 44.0112C3.39687 45.7232 5.23257 46.4366 6.13616 46.5793L41.9466 46.4366C44.0011 46.3224 44.5147 44.677 44.5147 43.8685V17.617H46.7974V43.8685ZM46.7974 43.8685L47 17.617" stroke="#000080" stroke-width="0.59"/>
<path d="M1 18L1.5 44.5" stroke="#000080" stroke-width="0.71"/>
</svg>
