<svg width="229" height="46" viewBox="0 0 229 46" fill="none" xmlns="http://www.w3.org/2000/svg">
<path d="M87.65 25.32C93.41 25.32 97.1 27.21 97.1 30.33C97.1 33.42 93.41 35.28 87.65 35.28C81.86 35.28 78.2 33.42 78.2 30.33C78.2 27.21 81.86 25.32 87.65 25.32ZM87.65 27.27C83.39 27.27 80.66 28.44 80.66 30.33C80.66 32.19 83.39 33.36 87.65 33.36C91.91 33.36 94.61 32.19 94.61 30.33C94.61 28.44 91.91 27.27 87.65 27.27ZM78.41 9.57H95.87V11.61H78.41V9.57ZM75.5 20.85H99.98V22.86H75.5V20.85ZM85.55 15.63H88.01V21.42H85.55V15.63ZM94.43 9.57H96.86V11.88C96.86 14.07 96.86 16.26 96.14 19.08L93.68 18.78C94.43 15.99 94.43 14.01 94.43 11.88V9.57ZM110.268 12.09H112.278V16.5C112.278 22.23 108.828 27.99 104.508 30.12L103.068 28.14C106.998 26.28 110.268 21.18 110.268 16.5V12.09ZM110.748 12.09H112.758V16.5C112.758 21.09 116.028 25.77 120.018 27.48L118.608 29.46C114.228 27.42 110.748 22.14 110.748 16.5V12.09ZM103.968 10.98H119.118V13.08H103.968V10.98ZM122.778 8.22H125.268V35.34H122.778V8.22ZM145.217 20.94H147.707V24.42H145.217V20.94ZM156.647 8.25H159.137V26.43H156.647V8.25ZM158.087 16.44H163.097V18.51H158.087V16.44ZM138.287 25.65L137.957 23.61C142.817 23.61 149.417 23.61 155.027 22.8L155.237 24.57C149.447 25.59 143.027 25.62 138.287 25.65ZM141.317 27.78H159.137V35.34H156.647V29.76H141.317V27.78ZM138.647 10.68H154.217V12.54H138.647V10.68ZM146.447 13.59C150.257 13.59 152.747 15.12 152.747 17.61C152.747 20.1 150.257 21.63 146.447 21.63C142.607 21.63 140.117 20.1 140.117 17.61C140.117 15.12 142.607 13.59 146.447 13.59ZM146.447 15.3C144.017 15.3 142.457 16.17 142.457 17.61C142.457 18.99 144.017 19.89 146.447 19.89C148.847 19.89 150.407 18.99 150.407 17.61C150.407 16.17 148.847 15.3 146.447 15.3ZM145.217 8.01H147.707V11.58H145.217V8.01ZM185.444 8.25H187.964V28.05H185.444V8.25ZM170.534 32.7H188.774V34.74H170.534V32.7ZM170.534 26.01H172.994V33.39H170.534V26.01ZM173.414 10.11C177.464 10.11 180.464 12.87 180.464 16.8C180.464 20.7 177.464 23.49 173.414 23.49C169.364 23.49 166.334 20.7 166.334 16.8C166.334 12.87 169.364 10.11 173.414 10.11ZM173.414 12.27C170.774 12.27 168.764 14.13 168.764 16.8C168.764 19.44 170.774 21.3 173.414 21.3C176.054 21.3 178.064 19.44 178.064 16.8C178.064 14.13 176.054 12.27 173.414 12.27Z" fill="#000080"/>
<rect x="40.6264" y="4.25125" width="1.62271" height="9.73627" rx="0.811355" transform="rotate(49.1158 40.6264 4.25125)" fill="#000080"/>
<rect x="47.0829" y="22.254" width="1.62271" height="9.73627" rx="0.811355" transform="rotate(90.9 47.0829 22.254)" fill="#000080"/>
<rect x="44.2448" y="12.9919" width="1.62271" height="9.73627" rx="0.811355" transform="rotate(70.8774 44.2448 12.9919)" fill="#000080"/>
<path d="M13.5691 30.2146L10.3237 17.6386L3.83288 19.667C-4.28066 24.5351 2.21013 33.46 7.48398 31.8373L13.5691 30.2146Z" fill="#000080"/>
<path d="M13.8023 28.7784L10.906 18.2792C10.7989 17.8911 10.9351 17.4766 11.2514 17.2275L28.6027 3.56802C29.1672 3.12357 30.0023 3.40184 30.1875 4.0961L37.5159 31.5776C37.7017 32.2743 37.1116 32.9326 36.3989 32.8239L14.6155 29.501C14.2257 29.4415 13.9072 29.1585 13.8023 28.7784Z" fill="#000080"/>
<path d="M17.6258 37.5168L13.9747 31.0259L7.48383 32.6487L11.5406 39.5452C15.1917 42.3849 18.0314 39.5452 17.6258 37.5168Z" fill="#000080"/>
</svg>
