<svg width="210" height="45" viewBox="0 0 210 45" fill="none" xmlns="http://www.w3.org/2000/svg">
<path d="M81.71 26.57H84.2V37.55H81.71V26.57ZM91.34 26.57H93.83V37.55H91.34V26.57ZM75.47 25.91H100.07V27.95H75.47V25.91ZM78.59 11.69H96.89V22.25H78.59V11.69ZM94.46 13.67H81.05V20.27H94.46V13.67ZM110.298 13.01H112.368V15.17C112.368 20.15 109.308 24.32 104.748 25.94L103.458 23.99C107.538 22.55 110.298 19.01 110.298 15.17V13.01ZM110.778 13.01H112.848V15.17C112.848 18.83 115.668 22.13 119.688 23.48L118.398 25.43C113.898 23.9 110.778 19.91 110.778 15.17V13.01ZM122.808 10.22H125.328V26.63H122.808V10.22ZM107.208 28.07H125.328V37.34H122.808V30.11H107.208V28.07ZM104.118 12.11H118.968V14.12H104.118V12.11ZM144.737 16.67H146.687V18.98C146.687 24.71 143.567 29.99 139.277 32.12L137.867 30.2C141.857 28.28 144.737 23.66 144.737 18.98V16.67ZM145.217 16.67H147.167V18.98C147.167 23.36 149.897 27.77 153.767 29.69L152.387 31.61C148.157 29.51 145.217 24.38 145.217 18.98V16.67ZM138.617 14.93H153.167V16.94H138.617V14.93ZM144.707 10.7H147.167V16.04H144.707V10.7ZM156.467 10.22H158.987V37.34H156.467V10.22ZM158.387 21.35H163.427V23.42H158.387V21.35ZM168.884 24.83H187.514V26.84H168.884V24.83ZM165.734 31.79H190.304V33.86H165.734V31.79ZM168.884 12.53H187.214V14.57H171.404V25.46H168.884V12.53ZM170.594 18.59H186.644V20.57H170.594V18.59Z" fill="#000080"/>
<rect x="0.5" y="0.5" width="44" height="44" rx="6.5" fill="white" stroke="#000080"/>
<path d="M17.0376 20.0938L5.76923 34.334L8.42062 36.9231L17.7005 25.272L23.6661 30.4503L32.946 18.7992L36.2602 21.3884L36.9231 10.3846L26.3175 14.2683L29.6317 16.8574L23.6661 25.272L17.0376 20.0938Z" fill="#000080"/>
</svg>
