<?xml version="1.0" encoding="UTF-8"?>
<svg id="Layer_2" data-name="Layer 2" xmlns="http://www.w3.org/2000/svg" xmlns:xlink="http://www.w3.org/1999/xlink" viewBox="0 0 414.76 57.53">
  <defs>
    <style>
      .cls-1 {
        fill: url(#linear-gradient);
      }

      .cls-1, .cls-2, .cls-3, .cls-4, .cls-5, .cls-6, .cls-7, .cls-8, .cls-9, .cls-10, .cls-11, .cls-12, .cls-13, .cls-14, .cls-15 {
        stroke-width: 0px;
      }

      .cls-2 {
        fill: url(#linear-gradient-11);
      }

      .cls-3 {
        fill: url(#linear-gradient-12);
      }

      .cls-4 {
        fill: url(#linear-gradient-13);
      }

      .cls-5 {
        fill: url(#linear-gradient-10);
      }

      .cls-6 {
        fill: url(#linear-gradient-15);
      }

      .cls-7 {
        fill: url(#linear-gradient-14);
      }

      .cls-8 {
        fill: url(#linear-gradient-4);
      }

      .cls-9 {
        fill: url(#linear-gradient-2);
      }

      .cls-10 {
        fill: url(#linear-gradient-3);
      }

      .cls-11 {
        fill: url(#linear-gradient-8);
      }

      .cls-12 {
        fill: url(#linear-gradient-9);
      }

      .cls-13 {
        fill: url(#linear-gradient-7);
      }

      .cls-14 {
        fill: url(#linear-gradient-5);
      }

      .cls-15 {
        fill: url(#linear-gradient-6);
      }
    </style>
    <linearGradient id="linear-gradient" x1="26.75" y1="27.55" x2="426.59" y2="55.09" gradientUnits="userSpaceOnUse">
      <stop offset="0" stop-color="#8a2be2"/>
      <stop offset=".15" stop-color="#8429de"/>
      <stop offset=".32" stop-color="#7624d3"/>
      <stop offset=".52" stop-color="#5d1dc2"/>
      <stop offset=".72" stop-color="#3b12aa"/>
      <stop offset=".93" stop-color="#10058b"/>
      <stop offset="1" stop-color="navy"/>
    </linearGradient>
    <linearGradient id="linear-gradient-2" x1="26.92" y1="25.14" x2="426.76" y2="52.68" xlink:href="#linear-gradient"/>
    <linearGradient id="linear-gradient-3" x1="27" y1="24.02" x2="426.84" y2="51.56" xlink:href="#linear-gradient"/>
    <linearGradient id="linear-gradient-4" x1="27.19" y1="21.19" x2="427.03" y2="48.73" xlink:href="#linear-gradient"/>
    <linearGradient id="linear-gradient-5" x1="27.21" y1="20.92" x2="427.05" y2="48.46" xlink:href="#linear-gradient"/>
    <linearGradient id="linear-gradient-6" x1="27.28" y1="19.98" x2="427.12" y2="47.52" xlink:href="#linear-gradient"/>
    <linearGradient id="linear-gradient-7" x1="28.38" y1="3.9" x2="428.22" y2="31.45" xlink:href="#linear-gradient"/>
    <linearGradient id="linear-gradient-8" x1="26.54" y1="30.68" x2="426.38" y2="58.22" xlink:href="#linear-gradient"/>
    <linearGradient id="linear-gradient-9" x1="28.65" y1=".07" x2="428.49" y2="27.61" xlink:href="#linear-gradient"/>
    <linearGradient id="linear-gradient-10" x1="26.61" y1="29.63" x2="426.45" y2="57.18" xlink:href="#linear-gradient"/>
    <linearGradient id="linear-gradient-11" x1="28.16" y1="7.09" x2="428" y2="34.63" xlink:href="#linear-gradient"/>
    <linearGradient id="linear-gradient-12" x1="29.01" y1="-5.16" x2="428.85" y2="22.38" xlink:href="#linear-gradient"/>
    <linearGradient id="linear-gradient-13" x1="27.18" y1="21.35" x2="427.02" y2="48.89" xlink:href="#linear-gradient"/>
    <linearGradient id="linear-gradient-14" x1="12.96" y1="32.56" x2="8.54" y2="-9.41" gradientUnits="userSpaceOnUse">
      <stop offset=".03" stop-color="navy"/>
      <stop offset=".04" stop-color="#13068e"/>
      <stop offset=".07" stop-color="#3310a4"/>
      <stop offset=".09" stop-color="#4e18b7"/>
      <stop offset=".12" stop-color="#641fc7"/>
      <stop offset=".15" stop-color="#7524d3"/>
      <stop offset=".19" stop-color="#8128db"/>
      <stop offset=".24" stop-color="#882ae0"/>
      <stop offset=".4" stop-color="#8a2be2"/>
    </linearGradient>
    <linearGradient id="linear-gradient-15" x1="0" y1="27.64" x2="33.02" y2="27.64" gradientUnits="userSpaceOnUse">
      <stop offset=".06" stop-color="navy"/>
      <stop offset=".21" stop-color="#1a0892"/>
      <stop offset=".58" stop-color="#561abd"/>
      <stop offset=".86" stop-color="#7b26d7"/>
      <stop offset="1" stop-color="#8a2be2"/>
    </linearGradient>
  </defs>
  <g id="Layer_1-2" data-name="Layer 1">
    <g>
      <g>
        <path class="cls-1" d="m41.21,6.62h-6.56v2.55h3.01c.51,0,.73.1.78.15.04.04.16.22.16.79v36.27c0,.45-.08.71-.16.79,0,0-.15.15-.78.15h-5.13v2.55h14.4v-2.55h-5.71V6.62Z"/>
        <path class="cls-9" d="m84.25,2.92c-1.07,0-1.95.37-2.62,1.09-.66.71-.99,1.64-.99,2.76v.76h2.61v-.76c0-.39.1-.69.31-.94.18-.21.39-.31.69-.31.44,0,.64.16.76.31.22.26.34.59.37.94v11.82h-6.83c-1.1,0-2.01.36-2.7,1.08-.7.72-1.02,1.65-.97,2.75l.03.72h2.52v-.76c0-.37.11-.66.34-.91.22-.23.47-.34.79-.34h6.83v17.05c-3.6-.92-6.65-2.37-9.1-4.31-2.64-2.1-4.66-4.71-6-7.76-1.35-3.07-2.03-6.49-2.03-10.17v-3.64c0-1.13-.35-2.06-1.03-2.78-.69-.72-1.58-1.08-2.64-1.08s-1.95.37-2.62,1.09c-.66.71-.99,1.64-.99,2.76v.76h2.61v-.76c0-.39.1-.69.31-.94.18-.21.39-.31.7-.31.44,0,.63.16.75.31.21.25.31.55.31.94v3.64c0,3.77-.66,7.25-1.97,10.33-1.31,3.08-3.14,5.71-5.43,7.82-2.29,2.1-4.93,3.6-7.84,4.45l-.77.23.87,2.46.69-.2c2.92-.83,5.57-2.25,7.88-4.19,2.29-1.93,4.2-4.24,5.7-6.86.96-1.67,1.71-3.41,2.24-5.18.58,1.75,1.38,3.46,2.37,5.13,1.57,2.63,3.74,4.95,6.47,6.88,2.59,1.84,5.8,3.19,9.55,4.03v14.48h2.55V6.77c0-1.13-.35-2.06-1.03-2.78-.69-.72-1.58-1.08-2.64-1.08Z"/>
        <path class="cls-10" d="m95.31,0c-1.07,0-1.95.37-2.62,1.09-.66.71-.99,1.64-.99,2.76v.76h2.61v-.76c0-.39.1-.69.31-.94.18-.21.39-.31.69-.31.44,0,.64.16.76.31.21.25.31.55.31.94v53.67h2.61V3.86c0-1.13-.35-2.06-1.03-2.78-.69-.72-1.58-1.08-2.64-1.08Z"/>
        <path class="cls-8" d="m143.6,3.16c-1.07,0-1.96.38-2.63,1.13-.65.73-.98,1.56-.98,2.48v.88h2.55v-.88c0-.3.1-.55.32-.8.4-.45,1.08-.45,1.48,0,.22.25.32.5.32.8v12.97h-6.77c-1.1,0-2.01.37-2.7,1.08-.69.72-1.02,1.65-.97,2.75l.03.73h2.52v-.76c0-.37.11-.66.34-.91.22-.23.47-.34.79-.34h6.77v8.99h-6.77c-1.1,0-2.01.36-2.7,1.08-.69.72-1.02,1.65-.97,2.75l.03.73h2.52v-.76c0-.37.11-.66.34-.91.22-.23.47-.34.78-.34h6.77v21.51h2.55V6.77c0-.91-.32-1.74-.94-2.47-.66-.76-1.55-1.14-2.67-1.14Z"/>
        <path class="cls-14" d="m135.36,14.14c.14-.11.51-.29,1.44-.29h1.73v-2.55h-22.99c-1.1,0-2.01.36-2.7,1.08-.69.72-1.02,1.65-.97,2.75l.03.72h2.52v-.76c0-.37.11-.66.34-.91.22-.23.47-.34.79-.34h16.93c0,3.41-.42,6.52-1.28,9.25-.92,2.92-2.17,5.51-3.72,7.69-1.55,2.18-3.3,4.05-5.2,5.56-1.9,1.51-3.85,2.69-5.78,3.51-1.93.82-3.75,1.33-5.41,1.52l-.85.1.59,2.5.65-.05c1.57-.13,3.37-.59,5.35-1.39,1.97-.79,4-1.93,6.05-3.4,2.05-1.47,3.99-3.35,5.77-5.58,1.78-2.24,3.26-4.89,4.4-7.89,1.14-3,1.8-6.44,1.96-10.23.04-.97.28-1.23.35-1.29Z"/>
        <path class="cls-15" d="m154.3,0c-1.11,0-2.01.37-2.66,1.1-.63.71-.95,1.51-.95,2.39v.94h2.55v-.94c0-.25.1-.47.31-.69.39-.42,1.1-.42,1.46-.02.2.23.29.45.29.71v54.04h2.61V3.49c0-.88-.33-1.69-.99-2.4-.67-.72-1.56-1.09-2.62-1.09Z"/>
        <path class="cls-13" d="m197.82,9.36v-.76c0-.37.11-.66.34-.91.18-.19.39-.3.63-.33v21.38h2.55v-1.97c0-.51.1-.73.15-.78.08-.08.34-.16.79-.16h29.25v-2.55h-2.04c-.51,0-.73-.1-.78-.15-.08-.09-.16-.34-.16-.79l-.06-14.27c0-.34,0-.7.94-.7h2.04v-2.55h-32.53c-1.1,0-2.01.36-2.7,1.08-.7.72-1.02,1.65-.97,2.75l.03.72h2.52Zm28.13-2v15.92h-24.54V7.35h24.54Z"/>
        <path class="cls-11" d="m237.77,31.65c-.95,0-1.41.41-1.62.76l-.46.76s-.09.06-.41.06h-44.35c-1.11,0-2.02.38-2.71,1.12-.69.74-1.01,1.65-.96,2.71l.04.72h2.52v-.76c0-.54.18-.78.33-.92.22-.22.47-.32.8-.32h12.79v9.2c0,2.63-.52,4.77-1.55,6.36-.96,1.49-2.17,2.17-3.67,2.12l-.79-.04v2.63h.75c2.42.05,4.31-1,5.78-3.14,1.4-2.05,2.11-4.71,2.11-7.93v-9.2h14.76v21.75h2.61v-21.75h14.06c.52,0,1.02-.21,1.42-.62.4-.4.62-.92.62-1.48s-.22-1.08-.64-1.47c-.4-.37-.88-.57-1.4-.57Z"/>
        <path class="cls-12" d="m263.46,23.68c1.03-1.58,1.81-3.21,2.35-4.88.74,1.83,1.77,3.6,3.09,5.3,1.94,2.49,4.6,4.57,7.89,6.2,3.1,1.53,6.82,2.41,11.06,2.6v2.88h2.61V3.86c0-1.12-.33-2.05-.99-2.77-.67-.72-1.58-1.09-2.68-1.09s-2.01.37-2.66,1.1c-.63.71-.95,1.63-.95,2.75v.76h2.61v-.76c0-1.15.47-1.25,1-1.25.46,0,.66.17.77.29.2.22.29.54.29.95v26.48c-3.11-.17-5.94-.75-8.41-1.71-2.67-1.03-4.94-2.44-6.76-4.18-1.82-1.75-3.24-3.74-4.21-5.92-.96-2.18-1.45-4.48-1.45-6.83v-2.28h11.03c.54,0,1.02-.22,1.41-.64.37-.4.57-.88.57-1.4s-.2-1-.59-1.39-.86-.59-1.39-.59c-.84,0-1.27.38-1.48.7l-.47.71s-.11.04-.3.04h-22.84c-1.15,0-2.08.38-2.75,1.13-.66.74-.97,1.65-.92,2.7l.04.72h2.52v-.76c0-.54.18-.78.32-.92.22-.22.47-.32.8-.32h11.45v2.22c0,3.11-.67,6.04-1.99,8.72-1.32,2.67-3.21,4.93-5.63,6.71-2.41,1.78-5.33,2.89-8.67,3.32l-.79.1.45,2.52.71-.08c3.3-.38,6.27-1.42,8.81-3.1,2.53-1.67,4.6-3.74,6.17-6.14Z"/>
        <path class="cls-5" d="m256.26,38.87h0c-.69.72-1.02,1.65-.97,2.75l.03.72h2.52v-.76c0-.37.11-.66.34-.9.22-.24.47-.34.79-.34h28.76v10.97c0,1.12-.36,1.99-1.09,2.66-.75.68-1.71.98-2.93.96l-.78-.02v2.62l.74.02c.07,0,.14,0,.21,0,1.84,0,3.38-.56,4.57-1.66,1.25-1.16,1.88-2.69,1.88-4.57v-9.96c0-.85.32-1,.94-1h2.1v-2.55h-34.42c-1.1,0-2.01.37-2.7,1.08Z"/>
        <path class="cls-2" d="m356.65,21.93c-.88,0-1.34.39-1.57.72l-.55.79s-.12.07-.38.07h-8.29V3.74c0-1.09-.35-2-1.04-2.69-.69-.69-1.58-1.04-2.63-1.04s-1.96.38-2.65,1.12c-.68.73-1.02,1.67-1.02,2.8v.76h2.67v-.76c0-.43.1-.75.31-1,.18-.21.39-.31.69-.31.47,0,.67.16.78.28.19.2.28.48.28.85v36.81c-3.88-.52-7.36-1.6-10.36-3.21-3.19-1.71-5.72-4.02-7.53-6.85-1.79-2.82-2.71-6.17-2.71-9.98v-3.01h13.52c.54,0,1.02-.22,1.41-.64.37-.4.56-.88.56-1.39s-.2-1-.59-1.39-.86-.59-1.39-.59c-.84,0-1.27.38-1.48.7l-.47.71s-.11.04-.3.04h-11.27v-6.1c0-1.1-.35-2-1.04-2.69s-1.58-1.04-2.63-1.04-1.96.38-2.65,1.12c-.68.73-1.02,1.67-1.02,2.79v.76h2.67v-.76c0-.43.1-.75.31-1,.18-.21.39-.31.7-.31.47,0,.67.16.78.28.19.2.28.48.28.85v6.1h-12c-1.15,0-2.08.38-2.75,1.13-.66.74-.97,1.65-.92,2.7l.04.72h2.52v-.76c0-.54.18-.78.32-.92.22-.22.47-.32.8-.32h12v3.01c0,3.7-.75,6.99-2.22,9.76-1.47,2.77-3.54,5.07-6.13,6.84-2.61,1.78-5.69,3.01-9.13,3.68l-.83.16.76,2.42.66-.12c3.32-.58,6.36-1.72,9.05-3.38,2.69-1.67,4.94-3.79,6.69-6.32,1.14-1.64,2-3.43,2.58-5.34.7,2.04,1.76,3.93,3.16,5.64,2.11,2.56,4.86,4.69,8.18,6.31,3.12,1.52,6.63,2.52,10.45,2.97v14.42h2.61v-31.47h10.78c1.24,0,1.97-.76,1.97-2.04s-.74-2.1-1.97-2.1Z"/>
        <path class="cls-3" d="m369.08,11.85v-.76c0-.54.18-.78.32-.92h0c.22-.22.47-.33.8-.33h.61c.65,0,.8.14.8.14,0,0,.14.16.14.86v7.38h-4.19v2.55h3.25c.65,0,.8.14.8.14,0,0,.14.17.14.86v6.93c0,1.55.51,2.81,1.53,3.72.99.9,2.29,1.35,3.85,1.35h28.25c1.27,0,2.04-.78,2.04-2.1,0-.56-.2-1.06-.59-1.45-.38-.38-.88-.58-1.5-.58h-.01c-.74.06-1.26.34-1.55.81-.16.26-.32.5-.44.7,0,0-.1.06-.44.06h-25.76c-.87,0-1.55-.23-2.08-.69-.5-.44-.74-1.04-.74-1.83v-7.93h29.8c1.27,0,2.04-.78,2.04-2.1,0-.56-.2-1.07-.59-1.45-.38-.38-.89-.59-1.45-.59-.96,0-1.41.41-1.62.76l-.46.76s-.09.06-.41.06h-27.31v-8.38h29.8c1.27,0,2.04-.78,2.04-2.1,0-.56-.2-1.06-.59-1.45s-.88-.59-1.45-.59c-.96,0-1.41.41-1.62.76l-.46.76s-.09.06-.41.06h-31.41c-1.15,0-2.08.38-2.75,1.13-.66.74-.97,1.65-.92,2.7l.03.72h2.52Z"/>
        <path class="cls-4" d="m414.17,43.72c-.38-.38-.88-.59-1.45-.59-.95,0-1.41.41-1.62.76l-.46.76s-.09.06-.41.06l-44.35-.06c-1.1,0-2.01.36-2.7,1.08-.69.72-1.02,1.65-.97,2.75l.03.72h2.52v-.76c0-.37.11-.66.34-.91.22-.23.47-.34.78-.34l46.84.06c1.27,0,2.04-.78,2.04-2.1,0-.56-.2-1.06-.59-1.45Z"/>
      </g>
      <g>
        <path class="cls-7" d="m13.82,28.37l-5.34,5.53,1.66,1.61,5.66-5.87c.21-.22.32-.5.32-.8v-9.87h-2.31v9.4Z"/>
        <path class="cls-6" d="m30.96,13.66h-11.15c-1.16,0-2.06,1.03-2.06,2.34v.5h1.81v9.87h2.33v-1.18l3.51-3.57c1.46,2.11,2.26,4.65,2.26,7.21,0,6.99-5.68,12.67-12.67,12.67s-12.67-5.68-12.67-12.67,5.68-12.67,12.67-12.67c1.3,0,2.35-1.06,2.35-2.35s-1.06-2.35-2.35-2.35h-.5v2.39h.5C6.72,13.85,0,20.57,0,28.83s6.72,14.98,14.98,14.98,14.98-6.72,14.98-14.98c0-3.19-1.04-6.33-2.92-8.89l3.67-3.74v.29h2.31v-.5c0-1.31-.91-2.34-2.06-2.34Zm-3.26,2.31l-5.82,5.92v-5.92h5.82Z"/>
      </g>
    </g>
  </g>
</svg>